<?xml version="1.0" encoding="utf-8"?>
<!-- Generator: Adobe Illustrator 25.2.3, SVG Export Plug-In . SVG Version: 6.00 Build 0)  -->
<svg version="1.1" id="layer" xmlns="http://www.w3.org/2000/svg" xmlns:xlink="http://www.w3.org/1999/xlink" x="0px" y="0px"
	 viewBox="0 0 598.9 163.2" style="enable-background:new 0 0 598.9 163.2;" xml:space="preserve">
<style type="text/css">
	.st0{fill:#FFFFFF;}
	.st1{opacity:0.48;fill:#FFFFFF;enable-background:new    ;}
</style>
<path class="st0" d="M112.8,14.2c1.1-0.2,2.1-0.4,3.2-0.6C115,13.8,113.9,14,112.8,14.2z"/>
<g id="SIMPLE_custom">
	<path class="st0" d="M245.7,78.9c13.5,3.3,20.6,8.1,20.6,18.8c0,12-9.4,19.2-22.8,19.2c-9.3,0.1-18.3-3.1-25.5-9.1
		c-0.7-0.6-0.7-1.6-0.2-2.2l0,0l4.8-5.6c0.6-0.7,1.6-0.8,2.2-0.2l0,0c5.7,4.7,11.5,7.3,19,7.3c6.9,0,11.3-3.2,11.3-8.1
		c0-4.7-2.6-7.1-14.4-9.9c-13.6-3.3-21.3-7.3-21.3-19.2c0-11.1,9.1-18.6,21.8-18.6c7.8-0.2,15.5,2.3,21.8,7c0.7,0.5,0.8,1.5,0.3,2.2
		l-4.2,5.9c-0.5,0.7-1.5,0.9-2.2,0.4l0,0c-4.6-3.5-10.3-5.5-16.1-5.6c-6.6,0-10.4,3.4-10.4,7.7C230.6,73.8,233.5,76,245.7,78.9z"/>
	<path class="st0" d="M302.3,53.6v60.7c0,0.9-0.7,1.6-1.6,1.6h-8.1c-0.9,0-1.6-0.7-1.6-1.6V53.6c0-0.9,0.7-1.6,1.6-1.6h8.1
		C301.6,52.1,302.3,52.8,302.3,53.6z"/>
	<path class="st0" d="M357.6,94.7l-13.4-20c-0.5-0.7-1.5-0.9-2.2-0.4c-0.4,0.3-0.7,0.8-0.7,1.3v38.8c0,0.9-0.7,1.6-1.6,1.6h-7.9
		c-0.9,0-1.6-0.7-1.6-1.6V53.7c0-0.9,0.7-1.6,1.6-1.6h9.5c0.5,0,1,0.3,1.3,0.7l17.6,27.4c0.5,0.7,1.5,0.9,2.2,0.5
		c0.2-0.1,0.3-0.3,0.5-0.5l17.6-27.4c0.3-0.5,0.8-0.7,1.3-0.7h9.5c0.9,0,1.6,0.7,1.6,1.6v60.7c0,0.9-0.7,1.6-1.6,1.6h-8
		c-0.9,0-1.6-0.7-1.6-1.6v-39c0-0.9-0.8-1.6-1.6-1.5c-0.5,0-1,0.3-1.2,0.7l-13.5,20.1c-0.3,0.4-0.8,0.7-1.3,0.7H359
		C358.4,95.4,357.9,95.1,357.6,94.7z"/>
	<path class="st0" d="M444.3,95.4h-11.1c-0.9,0-1.6,0.7-1.6,1.6v17.4c0,0.9-0.7,1.6-1.6,1.6h-8c-0.9,0-1.6-0.7-1.6-1.6V53.6
		c0-0.9,0.7-1.6,1.6-1.6h23.6c14.9,0,24.3,8.4,24.3,21.4C469.9,87.9,458.4,95.4,444.3,95.4z M444.7,62.3h-11.5
		c-0.9,0-1.6,0.7-1.6,1.6v19.8c0,0.9,0.7,1.6,1.6,1.6h11.5c8.5,0,13.8-4.7,13.8-11.5C458.5,66.2,453.1,62.3,444.7,62.3z"/>
	<path class="st0" d="M491.2,52.1h8c0.9,0,1.6,0.7,1.6,1.6v50.5c0,0.9,0.7,1.6,1.6,1.6h30.4c0.9,0,1.6,0.7,1.6,1.6v7.1
		c0,0.9-0.7,1.6-1.6,1.6h-41.6c-0.9,0-1.6-0.7-1.6-1.6V53.8C489.6,52.8,490.3,52.1,491.2,52.1z"/>
	<path class="st0" d="M598.5,62.1h-33.4c-0.9,0-1.6,0.7-1.6,1.6v13.4c0,0.9,0.7,1.6,1.6,1.6h32.2c0.9,0,1.6,0.7,1.6,1.6v6.8
		c0,0.9-0.7,1.6-1.6,1.6h-32.2c-0.9,0-1.6,0.7-1.6,1.6v14c0,0.9,0.7,1.6,1.6,1.6h33.4c0.9,0,1.6,0.7,1.6,1.6v6.9
		c0,0.9-0.7,1.6-1.6,1.6h-44.7c-0.9,0-1.6-0.7-1.6-1.6V53.7c0-0.9,0.7-1.6,1.6-1.6h44.7c0.9,0,1.6,0.7,1.6,1.6v6.9
		C600.1,61.4,599.4,62.1,598.5,62.1z"/>
</g>
<path class="st1" d="M156.9,62.3c-3-10.5-9.5-19.7-18.4-26c-2.3-1.6-4.7-3.1-7.3-4.3c-0.4-0.2-0.8-0.6-1-1c-1.3-2.5-2.7-4.9-4.4-7.2
	c-6.5-8.8-15.7-15.1-26.3-18c-3.9-1-7.8-1.5-11.8-1.4C80.8,4.5,74.1,6,67.8,8.8c-2.6,1.2-5.1,2.6-7.4,4.2c-0.3,0.2-0.7,0.3-1.1,0.3
	l0,0c-1.2-0.1-2.5-0.1-3.6-0.1c-1.6,0-3.3,0.1-4.9,0.3c-5.4,0.6-10.7,2.1-15.7,4.5c-4.9,2.3-9.3,5.5-13.1,9.3
	c-9.6,10-14.5,23.6-13.4,37.4c0,0.5-0.1,0.9-0.3,1.3c-1.6,2.4-2.9,4.8-4.1,7.4c-9.3,20.6-2.6,44.8,16,57.7c2.3,1.6,4.7,3.1,7.3,4.3
	c0.4,0.2,0.8,0.6,1,1c1.2,2.5,2.7,4.9,4.4,7.2c3.2,4.4,7.2,8.2,11.7,11.3c4.4,3.1,9.4,5.3,14.6,6.7c3.9,1,7.9,1.5,11.9,1.5
	c6.8-0.1,13.6-1.6,19.8-4.4c2.6-1.2,5.1-2.6,7.4-4.2c0.3-0.2,0.7-0.3,1.1-0.3c1.1,0,2.3,0.1,3.7,0.1c24.4,0,44.8-18.7,46.9-43
	c0.2-2.8,0.2-5.6,0-8.4c0-0.5,0.1-1,0.3-1.3c1.6-2.3,2.9-4.8,4.1-7.4c2.8-6.3,4.2-13.1,4.2-19.9C158.5,70.2,157.9,66.2,156.9,62.3z
	 M75.6,13.4c3.9-1.2,8-1.8,12-1.9c3.4,0,6.8,0.4,10,1.2c7.3,2,13.8,5.9,19,11.3c0.5,0.5,0.7,1.3,0.4,2s-1,1.1-1.7,1.1
	c-0.1,0-0.2,0-0.3,0c-1.8-0.3-3.5-0.4-5.3-0.5c-1.1,0-2.3-0.1-3.7,0c-3.9,0-7.7,0.4-11.5,1.1h-0.3c-0.4,0-0.8-0.2-1.2-0.4
	c-3.9-3.3-8.2-6.1-12.8-8.4c-1.6-0.8-3.2-1.5-4.9-2.1c-0.7-0.3-1.2-1-1.2-1.8C74.4,14.3,74.9,13.6,75.6,13.4z M51.1,32.6
	c2.8-4.3,6.2-8.1,10.1-11.3c0.3-0.3,0.8-0.4,1.2-0.4h0.3c5,0.8,9.9,2.3,14.5,4.5c1.3,0.6,2.7,1.4,4.2,2.3c0.6,0.4,1,1.1,0.9,1.8
	c-0.1,0.7-0.6,1.4-1.3,1.6c-1.8,0.6-3.6,1.1-5.3,1.7L75,33c-3.7,1.2-6.3,2-9,2.8s-5.3,1.3-8.1,2l-1,0.2c-2,0.4-4.1,0.9-6.2,1.4
	c-0.1,0-0.3,0-0.4,0c-0.7,0-1.3-0.3-1.6-0.9c-0.3-0.6-0.3-1.3,0-1.8C49.4,35.4,50.2,34,51.1,32.6z M23.5,100.1c-0.8,5-1,10-0.7,15
	c0.1,1.6,0.3,3.4,0.6,5.3c0.1,0.6,0,1.1-0.4,1.6c-0.4,0.4-0.9,0.6-1.4,0.6s-0.9-0.2-1.3-0.5C8.8,111.8,4.4,95.8,9,81.1
	c0.3-1,1.3-1.5,2.3-1.2c0.5,0.2,1,0.6,1.2,1.1c0.6,1.6,1.4,3.3,2.2,4.8c2.3,4.5,5.1,8.7,8.4,12.6C23.4,98.9,23.6,99.5,23.5,100.1z
	 M28.6,80.3c-0.6,2-1.2,4-1.9,6.1c-0.2,0.8-0.9,1.3-1.8,1.3c-0.6,0-1.3-0.3-1.6-0.9c-0.9-1.4-1.7-2.7-2.4-4.2c-2.4-4.7-4-9.8-4.8-15
	c-0.6-3.6-0.7-7.2-0.4-10.7c0-0.7,0.1-1.4,0.3-2.1c2.2-16.3,14.3-29.6,30.3-33.3c0.1,0,0.3,0,0.4,0c0.7,0,1.3,0.4,1.6,1
	c0.3,0.6,0.2,1.4-0.2,2c-1,1.3-2.1,2.8-3.2,4.3c-2.8,4.4-5.2,9.1-6.9,14.1c-0.1,0.2-0.2,0.4-0.5,0.5c-4.5,1.7-8.8,3.8-12.8,6.3
	l-0.6,0.4l-0.5,0.3l-0.3,0.2l-0.1,0.1L23,50.9L22.9,51l-0.3,0.2c-0.1,0.1-0.2,0.2-0.2,0.4c0,0.2,0,0.3,0,0.5v0.5
	c0,0.4,0,0.7-0.1,1.1c-0.1,0.7-0.1,1.5-0.2,2.2s0,1.5,0,2.3c0,0.2,0,0.4,0,0.6c0,0.4,0.4,0.8,0.8,0.8c0.2,0,0.3-0.1,0.5-0.1
	c1-0.7,1.9-1.3,2.9-2l0.4-0.5c0.3-0.3,0.7-0.5,1-0.7l0.6-0.4c1.1-0.7,2.3-1.4,3.6-2.2c0.8-0.4,1.8-0.2,2.4,0.5
	c0.3,0.4,0.5,1,0.4,1.6c-0.4,1.8-0.8,3.6-1.2,5.3L33.3,62c-0.6,3-1.3,6.1-2,9.2c-0.8,3-1.6,5.6-2.5,8.5L28.6,80.3z M35.6,131.1
	l-1.9-0.7l-0.2-0.1l-0.2-0.3c-2-4.9-3.1-10.1-3.5-15.3c-0.1-1.6-0.2-3.2-0.1-4.8c0-1,0.8-1.8,1.9-1.8c0.5,0,0.9,0.2,1.3,0.5
	c1.6,1.5,3.2,2.9,4.8,4.2l0.4,0.3c2.2,1.9,4.4,4,6.6,6.1c2.1,2.1,4.2,4.3,6.5,6.8c0.6,0.6,1.2,1.3,1.8,2l0.2,0.2c0.1,0,0.1,0,0.2,0
	c2.4,0,4.9-0.3,7.3-0.6c0.4-0.1,0.7-0.5,0.7-0.9c0-0.2-0.1-0.3-0.2-0.4c-1.6-1.6-3-3.2-4.8-5l-0.7-0.7c-1.9-2-3.9-4.2-6-6.2
	s-4.1-3.9-6.1-5.7l-1.1-1c-2.4-2.2-4.8-4.2-7.1-6.5c-1.1-1-2.1-2-3.2-3.1c-0.5-0.5-0.7-1.3-0.5-2c0.3-1.4,0.7-2.8,1.1-4.2
	c0.8-3.1,1.7-5.9,2.5-8.4l0.5-1.7c0.9-2.9,1.8-5.7,2.5-8.6s1.4-6.1,2.2-9.5l0.3-1.4c0.5-2.4,1.1-5.2,1.8-8c0.3-1.3,0.7-2.7,1.1-4.2
	c0.2-0.7,0.8-1.3,1.5-1.5c1.2-0.4,2.4-0.7,3.5-1l0.7-0.2c3.4-0.9,6.5-1.6,9.4-2.2l1.2-0.3c2.9-0.7,5.6-1.3,8.3-2
	c2.7-0.7,5.7-1.7,8.4-2.6l0.9-0.3c2.9-1,5.9-2,9.2-2.9c1.9-0.5,3.5-1,4.9-1.3c3.6-0.9,7.2-1.4,10.9-1.7c1.3-0.1,2.7-0.2,4-0.2
	c1.1,0,2.1,0,3.2,0c5.2,0.3,10.4,1.4,15.3,3.3c0.2,0.1,0.4,0.2,0.5,0.4c2,4.9,3.2,10.1,3.5,15.3c0.1,1.5,0.1,3.1,0.1,4.8
	c0,1-0.8,1.9-1.8,1.9c-0.5,0-1-0.2-1.3-0.5c-1.6-1.5-3.2-2.9-4.8-4.2l-0.8-0.7c-2.2-1.9-4.2-3.8-6.1-5.7c-1.9-1.9-3.9-4-5.9-6.2
	l-0.6-0.6l-1.3-1.4l-0.5-0.6c-0.1-0.1-0.3-0.2-0.5-0.2c-2.4,0.1-4.8,0.3-7.1,0.6c-0.4,0.1-0.7,0.5-0.7,0.9c0,0.2,0.1,0.3,0.2,0.4
	c1.4,1.4,2.7,2.9,4.2,4.5l1.2,1.3c1.9,2.1,3.9,4.2,6,6.3c2.1,2.1,4.6,4.4,6.9,6.4l1.1,1l0.9,0.8c1.8,1.6,3.6,3.2,5.4,5
	c1.1,1,2.3,2.2,3.5,3.6c0.2,0.2,0.3,0.5,0.2,0.7c-0.4,1.7-0.8,3.3-1.2,4.9c-0.9,3.2-1.8,6.2-2.6,9l-0.2,0.7c-1,3.1-1.9,6-2.6,9
	s-1.4,5.9-2.1,9.5l-0.4,1.8c-0.5,2.4-1.1,5-1.7,7.6c-0.3,1.5-0.8,3.1-1.3,4.9c-0.1,0.2-0.3,0.4-0.5,0.5c-1.8,0.6-3.4,1-4.8,1.4
	c-3.4,0.9-6.5,1.6-9.4,2.3l-0.5,0.1c-3,0.7-6,1.4-9.1,2.2c-3,0.8-6.1,1.8-9.1,2.8h-0.1l-1.5,0.5c-2.5,0.8-5.1,1.7-7.9,2.5h-0.2
	c-1.1,0.3-2.8,0.8-4.8,1.3c-3.6,0.8-7.2,1.4-10.8,1.7c-1.3,0.1-2.7,0.2-4,0.2c-1.1,0-2.2,0-3.2,0l-2-0.1l-1.8-0.2h-0.5l-1.2-0.2
	c-0.1,0-0.2,0-0.3,0c-0.5,0-1-0.2-1.4-0.3c-0.9-0.2-1.8-0.4-2.6-0.6C38.3,132,36.9,131.5,35.6,131.1L35.6,131.1z M83,154.1
	c-3.9,1.2-8,1.8-12,1.9c-3.4,0-6.8-0.4-10.1-1.2c-7.3-2-13.8-5.9-19-11.3c-0.5-0.5-0.7-1.3-0.4-2c0.3-0.7,1-1.1,1.7-1.1h0.3
	c1.7,0.3,3.5,0.4,5.3,0.5c1.2,0,2.5,0.1,3.7,0c3.8-0.1,7.7-0.4,11.4-1.1h0.3c0.4,0,0.8,0.1,1.1,0.4c3.9,3.2,8.2,6,12.8,8.3
	c1.6,0.7,3.2,1.4,4.9,2.1c0.7,0.3,1.2,1,1.2,1.8C84.3,153.1,83.8,153.8,83,154.1L83,154.1z M107.5,134.8c-2.8,4.3-6.2,8.1-10.1,11.3
	c-0.3,0.3-0.7,0.4-1.2,0.4h-0.3c-5.1-0.7-10-2.3-14.5-4.5c-1.5-0.7-2.9-1.6-4.2-2.3c-0.9-0.6-1.1-1.7-0.6-2.6c0.2-0.4,0.6-0.7,1-0.8
	c1.6-0.5,3.2-1,4.8-1.6l1.3-0.4c3.2-1,6-2,9-2.8c2.6-0.7,5.3-1.3,8.1-1.9l1.1-0.3c2-0.4,4-0.9,6.1-1.4c0.1,0,0.3,0,0.4,0
	c0.7,0,1.3,0.3,1.6,0.9s0.3,1.2,0,1.8C109.2,132.1,108.4,133.5,107.5,134.8L107.5,134.8z M142.9,110.6c0,0.7-0.1,1.4-0.3,2.1
	c-2.2,16.3-14.3,29.6-30.3,33.3c-0.1,0-0.3,0-0.4,0c-1,0-1.9-0.8-1.9-1.9c0-0.4,0.1-0.8,0.4-1.1c1.1-1.3,2.1-2.8,3.1-4.3
	c2.7-4.3,5-8.8,6.7-13.5c0.2-0.6,0.7-1,1.3-1.3c4.3-1.6,8.5-3.7,12.4-6.2l0.6-0.4l0.6-0.4l0.3-0.2l0.1-0.1l0.4-0.3l0.3-0.2l0.1-0.1
	l0,0c0-0.1,0.1-0.3,0.1-0.4c0.3-2.3,0.4-4.6,0.4-7c0-0.4-0.4-0.8-0.8-0.8c-0.2,0-0.3,0.1-0.5,0.1c-1.6,1.1-3,2.1-4.8,3.2
	c-1.2,0.8-2.6,1.7-4.1,2.5c-0.3,0.2-0.6,0.2-0.9,0.2c-0.6,0-1.1-0.2-1.5-0.7c-0.3-0.4-0.5-1-0.4-1.6c0.4-1.6,0.7-3.2,1-4.8l0.3-1.5
	c0.5-2.8,1.2-6,2-9.2c0.7-2.8,1.6-5.7,2.5-8.5l0.2-0.5c0.6-2,1.2-4,1.8-6.1c0.2-0.8,1-1.3,1.8-1.3c0.6,0,1.2,0.3,1.6,0.9
	c1,1.6,1.7,2.9,2.4,4.2c2.4,4.7,4.1,9.8,4.9,15C143.1,103.4,143.2,107,142.9,110.6z M149.7,86.4c-0.3,1-1.3,1.5-2.3,1.2
	c-0.5-0.2-1-0.6-1.2-1.1c-0.6-1.6-1.4-3.3-2.2-4.8c-2.3-4.5-5.1-8.7-8.4-12.6c-0.4-0.5-0.6-1.1-0.5-1.7c0.8-5,1.1-10,0.7-15
	c-0.2-1.9-0.3-3.7-0.6-5.3c-0.1-0.5,0.1-1.1,0.4-1.5c0.4-0.4,0.9-0.7,1.4-0.7s0.9,0.2,1.3,0.5C149.8,55.8,154.2,71.7,149.7,86.4z"/>
<path class="st0" d="M156.9,62.4c-3-10.5-9.6-19.7-18.5-26c-2.3-1.6-4.7-3.1-7.3-4.3c-0.4-0.2-0.8-0.6-1-1c-1.3-2.5-2.7-4.9-4.4-7.2
	c-6.5-8.8-15.7-15.1-26.3-18c-3.9-1-7.8-1.5-11.8-1.4C80.7,4.6,74,6.1,67.7,8.9c-2.6,1.2-5.1,2.6-7.4,4.2c-0.3,0.2-0.7,0.3-1.1,0.3
	l0,0c-1.2-0.1-2.5-0.1-3.6-0.1c-1.6,0-3.3,0.1-4.9,0.3c-5.4,0.6-10.7,2.1-15.6,4.5c-4.9,2.3-9.3,5.5-13.1,9.3
	C12.4,37.4,7.5,51,8.6,64.8c0,0.5-0.1,0.9-0.3,1.3c-1.6,2.4-2.9,4.8-4.1,7.4c-9.3,20.6-2.6,44.8,16,57.7c2.3,1.6,4.7,3.1,7.3,4.3
	c0.4,0.2,0.8,0.6,1,1c1.2,2.5,2.7,4.9,4.4,7.2c3.2,4.4,7.2,8.2,11.7,11.3c4.4,3.1,9.4,5.3,14.6,6.7c3.9,1,7.9,1.5,11.9,1.5
	c6.8-0.1,13.6-1.6,19.8-4.4c2.6-1.2,5.1-2.6,7.4-4.2c0.3-0.2,0.7-0.3,1.1-0.3c1.1,0,2.3,0.1,3.7,0.1c24.4,0,44.8-18.7,46.9-43
	c0.2-2.8,0.2-5.6,0-8.4c0-0.5,0.1-1,0.3-1.3c1.6-2.3,2.9-4.8,4.1-7.4c2.8-6.3,4.2-13.1,4.2-19.9C158.5,70.2,158,66.3,156.9,62.4z
	 M75.6,13.5c3.9-1.2,8-1.8,12-1.9c3.4,0,6.8,0.4,10,1.2c7.3,2,13.8,5.9,19,11.3c0.5,0.5,0.7,1.3,0.4,2s-1,1.1-1.7,1.1
	c-0.1,0-0.2,0-0.3,0c-1.8-0.3-3.5-0.4-5.3-0.5c-1.1,0-2.3-0.1-3.7,0c-3.9,0-7.7,0.4-11.5,1.1h-0.3c-0.4,0-0.8-0.2-1.2-0.4
	c-3.9-3.2-8.2-6-12.8-8.3c-1.6-0.8-3.2-1.5-4.9-2.1c-0.7-0.3-1.2-1-1.2-1.8C74.3,14.5,74.9,13.7,75.6,13.5z M51.1,32.7
	c2.8-4.3,6.2-8.1,10.1-11.3c0.3-0.3,0.8-0.4,1.2-0.4h0.3c5,0.8,9.9,2.3,14.5,4.5c1.3,0.6,2.7,1.4,4.2,2.3c0.6,0.4,1,1.1,0.9,1.8
	c-0.1,0.7-0.6,1.4-1.3,1.6c-1.8,0.6-3.6,1.1-5.3,1.7L75,33.1c-3.7,1.2-6.3,2-9,2.8s-5.3,1.3-8.1,2l-1,0.2c-2,0.4-4.1,0.9-6.2,1.4
	c-0.1,0-0.3,0-0.4,0c-0.7,0-1.3-0.3-1.6-0.9c-0.3-0.6-0.3-1.3,0-1.8C49.4,35.5,50.2,34.1,51.1,32.7z M23.5,100.2c-0.8,5-1,10-0.7,15
	c0.1,1.6,0.3,3.4,0.6,5.3c0.1,0.6,0,1.1-0.4,1.6c-0.4,0.4-0.9,0.6-1.4,0.6s-0.9-0.2-1.3-0.5C8.8,111.9,4.4,95.9,9,81.2
	c0.3-1,1.3-1.5,2.3-1.2c0.5,0.2,1,0.6,1.2,1.1c0.6,1.6,1.4,3.3,2.2,4.8c2.3,4.5,5.1,8.7,8.4,12.6C23.4,99,23.6,99.6,23.5,100.2z
	 M28.6,80.4c-0.6,2-1.2,4-1.9,6.1c-0.2,0.8-0.9,1.3-1.8,1.3c-0.6,0-1.3-0.3-1.6-0.9c-0.9-1.4-1.7-2.7-2.4-4.2c-2.4-4.7-4-9.8-4.8-15
	c-0.6-3.5-0.8-7.2-0.5-10.7c0-0.7,0.1-1.4,0.3-2.1c2.2-16.3,14.3-29.6,30.3-33.3c0.1,0,0.3,0,0.4,0c0.7,0,1.3,0.4,1.6,1
	c0.3,0.6,0.2,1.4-0.2,2c-1,1.3-2.1,2.8-3.2,4.3C42,33.3,39.6,38,37.9,43c-0.1,0.2-0.2,0.4-0.5,0.5c-4.5,1.7-8.8,3.8-12.8,6.3
	c-0.7,0.5-1.4,0.9-2.1,1.4c-0.4,0.2-0.6,0.7-0.5,1.2c0,0.5-0.1,1-0.1,1.5s-0.1,1.5-0.1,2.2s0,1.6,0,2.3V59c0,0.4,0.4,0.8,0.8,0.8
	c0.2,0,0.3-0.1,0.5-0.1c1-0.7,1.9-1.3,2.9-2l0.6-0.4c0.3-0.3,0.7-0.5,1-0.7l0.6-0.4c1.1-0.7,2.3-1.4,3.6-2.2
	c0.8-0.4,1.8-0.2,2.4,0.5c0.3,0.4,0.5,1,0.4,1.6c-0.4,1.8-0.8,3.6-1.2,5.3v0.8c-0.6,3-1.3,6.1-2,9.2c-0.8,3-1.6,5.6-2.5,8.5
	L28.6,80.4z M35.6,131.2l-1.9-0.7l-0.2-0.1l-0.2-0.3c-2-4.9-3.1-10.1-3.5-15.3c-0.1-1.6-0.2-3.2-0.1-4.8c0-1,0.8-1.8,1.9-1.8
	c0.5,0,0.9,0.2,1.3,0.5c1.6,1.5,3.2,2.9,4.8,4.2l0.4,0.3c2.2,1.9,4.4,4,6.6,6.1c2.1,2.1,4.2,4.3,6.5,6.8c0.6,0.6,1.2,1.3,1.8,2
	l0.2,0.2c0.1,0,0.1,0,0.2,0c2.4,0,4.9-0.3,7.3-0.6c0.4-0.1,0.7-0.5,0.7-0.9c0-0.2-0.1-0.3-0.2-0.4c-1.6-1.6-3-3.2-4.8-5l-0.7-0.9
	c-1.9-2-3.9-4.2-6-6.2s-4.1-3.9-6.1-5.7l-1.1-1c-2.4-2.2-4.8-4.2-7.1-6.5c-1.1-1-2.1-2-3.2-3.1c-0.5-0.5-0.7-1.3-0.5-2
	c0.3-1.4,0.7-2.8,1.1-4.2c0.8-3.1,1.7-5.9,2.5-8.4l0.5-1.7c1-2.9,1.9-5.6,2.6-8.5s1.4-6.1,2.2-9.5l0.3-1.4c0.5-2.4,1.1-5.2,1.8-8
	c0.3-1.3,0.7-2.7,1.1-4.2c0.2-0.7,0.8-1.3,1.5-1.5c1.2-0.4,2.4-0.7,3.5-1l0.7-0.2c3.4-0.9,6.5-1.6,9.4-2.2l1.2-0.3
	c2.9-0.7,5.6-1.3,8.3-2s5.7-1.7,8.4-2.6l0.9-0.3c2.9-1,5.9-2,9.2-2.9c1.9-0.5,3.5-1,4.9-1.3c3.6-0.9,7.2-1.4,10.9-1.7
	c1.3-0.1,2.7-0.2,4-0.2c1.1,0,2.1,0,3.2,0c5.2,0.3,10.4,1.4,15.3,3.3c0.2,0.1,0.4,0.2,0.5,0.4c2,4.9,3.2,10.1,3.5,15.3
	c0.1,1.5,0.1,3.1,0.1,4.8c0,1-0.8,1.9-1.8,1.9c-0.5,0-1-0.2-1.3-0.5c-1.6-1.5-3.2-2.9-4.8-4.2l-0.8-0.7c-2.2-1.9-4.2-3.8-6.1-5.7
	c-1.9-1.9-3.9-4-5.9-6.2l-0.6-0.6l-1.3-1.4l-0.3-0.4c-0.1-0.1-0.3-0.2-0.5-0.2c-2.4,0.1-4.8,0.3-7.1,0.6c-0.4,0.1-0.7,0.5-0.7,0.9
	c0,0.2,0.1,0.3,0.2,0.4c1.4,1.4,2.7,2.9,4.2,4.5l1.2,1.3c1.9,2.1,3.9,4.2,6,6.3c2.1,2.1,4.6,4.4,6.9,6.4l1.1,1l0.9,0.8
	c1.8,1.6,3.6,3.2,5.4,5c1.1,1,2.3,2.2,3.5,3.6c0.2,0.2,0.3,0.5,0.2,0.7c-0.4,1.7-0.8,3.3-1.2,4.9c-0.9,3.2-1.8,6.2-2.6,9l-0.2,0.7
	c-1,3.1-1.9,6-2.6,9s-1.4,5.9-2.1,9.5l-0.4,1.8c-0.5,2.4-1.1,5-1.7,7.6c-0.3,1.5-0.8,3.1-1.3,4.9c-0.1,0.2-0.3,0.4-0.5,0.5
	c-1.8,0.6-3.4,1-4.8,1.4c-3.4,0.9-6.5,1.6-9.4,2.3l-1.1-0.1c-3,0.7-6,1.4-9.1,2.2c-3,0.8-6.1,1.8-9.1,2.8l-0.1,0.1l-1.5,0.5
	c-2.5,0.8-5.1,1.7-7.9,2.5h-0.2c-1.1,0.3-2.8,0.8-4.8,1.3c-3.6,0.8-7.2,1.4-10.8,1.7c-1.3,0.1-2.7,0.2-4,0.2s-2.2,0-3.2,0l-2-0.1
	l-1.8-0.2l-0.5-0.1l-1.5-0.4c-0.1,0-0.2,0-0.3,0c-0.5,0-1-0.2-1.4-0.3c-0.9-0.2-1.8-0.4-2.6-0.6C38.1,132,36.9,131.6,35.6,131.2
	L35.6,131.2z M83,154.1c-3.9,1.2-8,1.8-12,1.9c-3.4,0-6.8-0.4-10.1-1.2c-7.3-2-13.8-5.9-19-11.3c-0.5-0.5-0.7-1.3-0.4-2
	c0.3-0.7,1-1.1,1.7-1.1h0.3c1.7,0.3,3.5,0.4,5.3,0.5c1.2,0,2.5,0.1,3.7,0.1c3.8-0.1,7.7-0.4,11.4-1.1h0.3c0.4,0,0.8,0.1,1.1,0.4
	c3.9,3.2,8.2,6,12.8,8.3c1.6,0.7,3.2,1.4,4.9,2.1c0.7,0.3,1.2,1,1.2,1.8C84.3,153.2,83.7,153.9,83,154.1L83,154.1z M107.5,134.9
	c-2.8,4.3-6.2,8.1-10.1,11.3c-0.3,0.3-0.7,0.4-1.2,0.4h-0.3c-5.1-0.7-10-2.3-14.5-4.5c-1.5-0.7-2.9-1.6-4.2-2.3
	c-0.9-0.6-1.1-1.7-0.6-2.6c0.2-0.4,0.6-0.7,1-0.8c1.6-0.5,3.2-1,4.8-1.5l1.3-0.4c3.2-1,6-2,9-2.8c2.6-0.7,5.3-1.3,8.1-1.9l1.1-0.3
	c2-0.4,4-0.9,6.1-1.4c0.1,0,0.3,0,0.4,0c0.7,0,1.3,0.3,1.6,0.9s0.3,1.2,0,1.8C109.2,132.2,108.4,133.6,107.5,134.9L107.5,134.9z
	 M136.3,116c0-0.1,0-0.3,0-0.4c0.3-2.3,0.4-4.6,0.4-7c0-0.4-0.4-0.8-0.8-0.8c-0.2,0-0.3,0.1-0.5,0.1c-1.6,1.1-3,2.1-4.8,3.2
	c-1.2,0.8-2.6,1.7-4.1,2.5c-0.3,0.2-0.6,0.2-0.9,0.2c-0.6,0-1.1-0.2-1.5-0.7c-0.3-0.4-0.5-1-0.4-1.6c0.4-1.6,0.7-3.2,1-4.8l0.3-1.5
	c0.5-2.8,1.2-6,2-9.2c0.7-2.8,1.6-5.7,2.5-8.5l0.2-0.5c0.6-2,1.2-4,1.8-6.1c0.2-0.8,1-1.3,1.8-1.3c0.6,0,1.2,0.3,1.6,0.9
	c1,1.6,1.7,2.9,2.4,4.2c2.4,4.7,4,9.8,4.8,15c0.6,3.6,0.7,7.2,0.4,10.7c0,0.7-0.1,1.4-0.3,2.1c-2.2,16.3-14.3,29.6-30.3,33.3
	c-0.1,0-0.3,0-0.4,0c-0.7,0-1.3-0.4-1.6-1s-0.3-1.4,0.2-2c1.1-1.3,2.1-2.8,3.2-4.3c2.7-4.3,5-8.8,6.7-13.5c0.2-0.6,0.7-1,1.3-1.3
	c4.3-1.6,8.5-3.7,12.4-6.2l1.9-1.3c0.2-0.1,0.4-0.2,0.5-0.4L136.3,116z M149.8,86.5c-0.3,1-1.3,1.5-2.3,1.2c-0.5-0.2-1-0.6-1.2-1.1
	c-0.6-1.6-1.4-3.3-2.2-4.8c-2.3-4.5-5.1-8.7-8.4-12.6c-0.4-0.5-0.6-1.1-0.5-1.7c0.8-5,1.1-10,0.7-15c-0.2-1.9-0.3-3.7-0.6-5.3
	c-0.1-0.5,0.1-1.1,0.4-1.5c0.4-0.4,0.9-0.7,1.4-0.7s0.9,0.2,1.3,0.5C149.8,55.9,154.2,71.8,149.8,86.5L149.8,86.5z"/>
<path class="st0" d="M28.3,56l-0.4,0.3l-1.2,0.8c0.3-0.3,0.7-0.5,1-0.7L28.3,56z"/>
</svg>
